<svg xmlns="http://www.w3.org/2000/svg" viewBox="0 0 100 100" width="100" height="100" role="img" aria-label="Zen lotus">
  <defs>
    <linearGradient id="s" gradientUnits="userSpaceOnUse" x1="50" y1="28" x2="50" y2="74">
      <stop offset="0" stop-color="#B8FFFF"/>
      <stop offset="0.5" stop-color="#00D2D3"/>
      <stop offset="1" stop-color="#0A9C9D"/>
    </linearGradient>
    <linearGradient id="f" gradientUnits="userSpaceOnUse" x1="50" y1="30" x2="50" y2="74">
      <stop offset="0" stop-color="#8AFFFF" stop-opacity="0.5"/>
      <stop offset="0.7" stop-color="#00D2D3" stop-opacity="0.14"/>
      <stop offset="1" stop-color="#00D2D3" stop-opacity="0"/>
    </linearGradient>
    <radialGradient id="a" cx="0.5" cy="0.5" r="0.5">
      <stop offset="0" stop-color="#8AFFFF" stop-opacity="0.55"/>
      <stop offset="0.45" stop-color="#00D2D3" stop-opacity="0.22"/>
      <stop offset="1" stop-color="#00D2D3" stop-opacity="0"/>
    </radialGradient>
    <g id="p">
      <path d="M0 0 C -10 -14 -9 -29 0 -42 C 9 -29 10 -14 0 0 Z"
            fill="url(#f)" stroke="url(#s)" stroke-width="2" stroke-linejoin="round"/>
      <path d="M0 -3 C -1.6 -15 -1.2 -29 0 -38" fill="none"
            stroke="url(#s)" stroke-width="1" stroke-linecap="round" opacity="0.5"/>
    </g>
  </defs>

  <ellipse cx="50" cy="54" rx="50" ry="44" fill="url(#a)">
  </ellipse>

  <g>
    <use href="#p" transform="translate(50 72) rotate(-66) scale(0.82)" opacity="0.6"/>
    <use href="#p" transform="translate(50 72) rotate(66) scale(0.82)" opacity="0.6"/>
    <use href="#p" transform="translate(50 72) rotate(-42) scale(0.9)" opacity="0.82"/>
    <use href="#p" transform="translate(50 72) rotate(42) scale(0.9)" opacity="0.82"/>
    <use href="#p" transform="translate(50 72) rotate(-20) scale(0.96)"/>
    <use href="#p" transform="translate(50 72) rotate(20) scale(0.96)"/>
    <use href="#p" transform="translate(50 72)"/>
    <g stroke="url(#s)" fill="none" stroke-linecap="round">
      <circle cx="50" cy="61" r="4.2" stroke-width="1.1" opacity="0.5"/>
      <circle cx="50" cy="61" r="1.4" fill="#8AFFFF" stroke="none"/>
      <g stroke-width="1.1">
        <line x1="50" y1="61" x2="50" y2="55"/>
        <line x1="50" y1="61" x2="45" y2="57"/>
        <line x1="50" y1="61" x2="55" y2="57"/>
      </g>
    </g>
  </g>
</svg>
